HIERARCHY
ROOT root
{
	OFFSET	0	13.1	24.9
	CHANNELS 6  Xposition Yposition Zposition Xrotation Yrotation Zrotation
	JOINT spine_1
	{
		OFFSET	0	9.99999	0
		CHANNELS 3  Xrotation Yrotation Zrotation
		JOINT spine_2
		{
			OFFSET	0	112	-10
			CHANNELS 3  Xrotation Yrotation Zrotation
			JOINT spine_3
			{
				OFFSET	0	206.5	19.3
				CHANNELS 3  Xrotation Yrotation Zrotation
				JOINT spine_4
				{
					OFFSET	0	110.4	14.6
					CHANNELS 3  Xrotation Yrotation Zrotation
					JOINT neck_1
					{
						OFFSET	0	71.8	-50.3
						CHANNELS 3  Xrotation Yrotation Zrotation
						JOINT neck_2
						{
							OFFSET	0	86.2	-25.8
							CHANNELS 3  Xrotation Yrotation Zrotation
							JOINT head_ee
							{
								OFFSET	0	179.8	-8.7
								CHANNELS 3  Xrotation Yrotation Zrotation
								End Site
								{
									OFFSET	1	0	0
								}
							}
						}
					}
					JOINT left_clavicle
					{
						OFFSET	-43.2	22.4	-70.8
						CHANNELS 3  Xrotation Yrotation Zrotation
						JOINT left_shoulder
						{
							OFFSET	-93.9	-5.79999	48.7
							CHANNELS 3  Xrotation Yrotation Zrotation
							JOINT left_elbow
							{
								OFFSET	-291.4	-30.8	15.2
								CHANNELS 3  Xrotation Yrotation Zrotation
								JOINT left_lowarm_twist
								{
									OFFSET	-110.7	-3.89999	13.6
									CHANNELS 3  Xrotation Yrotation Zrotation
									JOINT left_hand
									{
										OFFSET	-110.7	-3.89999	13.6
										CHANNELS 3  Xrotation Yrotation Zrotation
										JOINT left_ee
										{
											OFFSET	-80.8	-5.10001	12.1
											CHANNELS 3  Xrotation Yrotation Zrotation
											End Site
											{
												OFFSET	1	0	0
											}
										}
									}
								}
							}
						}
					}
					JOINT right_clavicle
					{
						OFFSET	43.2	22.4	-70.8
						CHANNELS 3  Xrotation Yrotation Zrotation
						JOINT right_shoulder
						{
							OFFSET	93.9	-5.79999	48.7
							CHANNELS 3  Xrotation Yrotation Zrotation
							JOINT right_elbow
							{
								OFFSET	291.4	-30.8	15.2
								CHANNELS 3  Xrotation Yrotation Zrotation
								JOINT right_lowarm_twist
								{
									OFFSET	110.7	-3.89999	13.6
									CHANNELS 3  Xrotation Yrotation Zrotation
									JOINT right_hand
									{
										OFFSET	110.7	-3.89999	13.6
										CHANNELS 3  Xrotation Yrotation Zrotation
										JOINT right_ee
										{
											OFFSET	80.8	-5.10001	12.1
											CHANNELS 3  Xrotation Yrotation Zrotation
											End Site
											{
												OFFSET	1	0	0
											}
										}
									}
								}
							}
						}
					}
				}
			}
		}
	}
	JOINT left_hip
	{
		OFFSET	-82.8	-127.5	0.300001
		CHANNELS 3  Xrotation Yrotation Zrotation
		JOINT left_knee
		{
			OFFSET	-28.2	-396.7	2.2
			CHANNELS 3  Xrotation Yrotation Zrotation
			JOINT left_ankle
			{
				OFFSET	-11.7	-411.3	35.4
				CHANNELS 3  Xrotation Yrotation Zrotation
				JOINT left_toes
				{
					OFFSET	0	-60	-88.6
					CHANNELS 3  Xrotation Yrotation Zrotation
					JOINT left_foot_ee
					{
						OFFSET	-22.5	-16.5	-42.2
						CHANNELS 3  Xrotation Yrotation Zrotation
						End Site
						{
							OFFSET	1	0	0
						}
					}
				}
			}
		}
	}
	JOINT right_hip
	{
		OFFSET	82.8	-127.5	0.300001
		CHANNELS 3  Xrotation Yrotation Zrotation
		JOINT right_knee
		{
			OFFSET	28.2	-396.7	2.2
			CHANNELS 3  Xrotation Yrotation Zrotation
			JOINT right_ankle
			{
				OFFSET	11.7	-411.3	35.4
				CHANNELS 3  Xrotation Yrotation Zrotation
				JOINT right_toes
				{
					OFFSET	0	-60	-88.6
					CHANNELS 3  Xrotation Yrotation Zrotation
					JOINT right_foot_ee
					{
						OFFSET	22.5	-16.5	-42.2
						CHANNELS 3  Xrotation Yrotation Zrotation
						End Site
						{
							OFFSET	1	0	0
						}
					}
				}
			}
		}
	}
}
MOTION
Frames: 11
Frame Time: 0.02
2469.39328428 740.842 -1514.66251633 115.778035427 80.1691968803 -113.527976789 -2.11722 -0.506982 -1.22063 -2.11649 -0.428289 -1.25041 -2.10599 -0.107637 -1.31732 -2.10827 -0.314315 -1.2838 -4.67673 2.12602 -1.63765 -4.65953 5.13915 -1.317 -0.0 0.0 -0.0 -0.413831 9.87513 0.455227 0.5772 -28.4127 80.0388 0.179964 -5.09451 0.00800605 -6.81751 -0.289501 0.821527 -0.763416 18.8868 3.04749 -0.0 0.0 -0.0 2.5957 6.08957 -4.52444 0.647312 18.4332 -67.648 2.59161 52.0751 -1.26628 -3.11429 0.120086 -0.379472 0.217151 -22.6304 -10.3357 0.0 0.0 0.0 13.4993 8.60909 -11.3403 -48.8092 -1.12005 7.18421 22.8929 16.2825 -3.12479 -15.9478 0.0 0.0 -0.0 0.0 -0.0 -2.87949 11.9779 -6.74611 4.4716 0.209797 0.653819 20.4847 9.54219 2.91181 -24.456 0.0 0.0 0.0 0.0 0.0 
2468.41242471 740.842 -1505.72049717 123.237995138 79.4075874952 -121.107492282 -2.11722 -0.506982 -1.22063 -2.11649 -0.428289 -1.25041 -2.10599 -0.107637 -1.31732 -2.10827 -0.314315 -1.2838 -4.67673 2.12602 -1.63765 -4.65953 5.13915 -1.317 -0.0 0.0 -0.0 -0.413831 9.87513 0.455227 0.5772 -28.4127 80.0388 0.179964 -5.09451 0.00800605 -6.81751 -0.289501 0.821527 -0.763416 18.8868 3.04749 -0.0 0.0 -0.0 2.5957 6.08957 -4.52444 0.647312 18.4332 -67.648 2.59161 52.0751 -1.26628 -3.11429 0.120086 -0.379472 0.217151 -22.6304 -10.3357 0.0 0.0 0.0 13.4993 8.60909 -11.3403 -48.8092 -1.12005 7.18421 22.8929 16.2825 -3.12479 -15.9478 0.0 0.0 -0.0 0.0 -0.0 -2.87949 11.9779 -6.74611 4.4716 0.209797 0.653819 20.4847 9.54219 2.91181 -24.456 0.0 0.0 0.0 0.0 0.0 
2463.55050056 738.196 -1494.07067587 128.225128621 78.3200798117 -126.334207876 -2.25449 -0.484717 -1.168 -2.25382 -0.409418 -1.19647 -2.24418 -0.0995634 -1.26065 -2.24627 -0.297395 -1.22911 -3.8213 2.07093 -2.69972 -3.78274 5.85478 -2.46278 -0.0 0.0 -0.0 -0.472557 10.149 0.388888 -0.0951871 -27.9755 80.4362 0.17246 -4.88315 0.00735363 -6.97819 -0.297498 0.840456 -0.762824 21.3944 4.09909 -0.0 0.0 -0.0 2.42133 4.89427 -4.27243 2.25028 18.9909 -66.9601 2.90198 55.1658 -1.51625 -3.08325 0.118788 -0.375722 0.322678 -21.0988 -10.4133 0.0 0.0 0.0 14.259 10.5352 -11.3918 -40.984 -0.530554 6.13547 27.6965 12.5285 -3.65779 -15.4956 0.0 0.0 -0.0 0.0 -0.0 -3.31865 11.9393 -6.75348 3.80868 0.175475 0.55793 21.9521 11.0624 3.12206 -22.8095 0.0 0.0 0.0 0.0 0.0 
2461.55135553 740.969 -1486.56008463 136.610004546 78.1790023666 -134.62719235 -2.66321 -0.479382 -1.24178 -2.66244 -0.3994 -1.26976 -2.65227 -0.0621917 -1.32963 -2.65463 -0.271384 -1.30313 -3.02626 1.28123 -1.75624 -3.00895 3.6966 -1.64065 -0.0 0.0 -0.0 -0.32515 7.97802 0.371392 -0.817501 -25.4976 81.3557 0.182242 -5.15867 0.00820968 -7.16233 -0.306726 0.862121 -0.703463 28.6313 7.3662 -0.0 0.0 -0.0 2.06594 1.21022 -3.87852 4.3525 19.9021 -66.5167 3.50337 60.0341 -2.02448 -2.85853 0.109448 -0.348557 0.578037 -16.9887 -10.4901 0.0 0.0 0.0 14.1178 11.8259 -10.2168 -31.9742 -0.0365985 4.84364 29.9213 14.7232 -3.92327 -15.7547 0.0 0.0 -0.0 0.0 -0.0 -1.25051 12.524 -7.19349 3.66726 0.168297 0.537425 23.3028 12.3818 3.31522 -22.5169 0.0 0.0 0.0 0.0 0.0 
2389.19318761 746.21 -1467.04151968 137.83375976 80.0073474702 -134.667903755 -2.51096 -0.435675 -1.75826 -2.50929 -0.322928 -1.7824 -2.49696 0.137714 -1.80617 -2.50148 -0.149218 -1.80526 1.37843 0.289536 2.23329 1.39594 -1.35432 2.46735 -0.0 0.0 -0.0 1.63137 1.25326 3.25523 -3.13209 -22.6192 80.5279 0.21169 -5.9866 0.0110695 -5.49063 -0.225512 0.664388 3.52355 30.4608 32.4358 -0.0 0.0 -0.0 -1.81709 -13.1131 1.4533 6.38596 26.4141 -72.7508 2.23989 47.9668 -0.996587 -3.38213 0.131376 -0.411798 0.65815 -11.2432 -8.86214 0.0 0.0 0.0 4.68523 17.7378 -8.83492 -18.4748 0.310671 2.80583 37.632 15.5397 -4.72209 -15.442 0.0 0.0 -0.0 0.0 -0.0 -0.66386 11.7799 -7.66982 -5.38966 -0.184087 -0.806365 28.386 5.22138 3.78914 -21.9165 0.0 0.0 0.0 0.0 0.0 
2389.27181972 746.21 -1463.28099102 139.751990239 79.6135689607 -136.616856165 -2.51096 -0.435675 -1.75826 -2.50929 -0.322928 -1.7824 -2.49696 0.137714 -1.80617 -2.50148 -0.149218 -1.80526 1.37843 0.289536 2.23329 1.39594 -1.35432 2.46735 -0.0 0.0 -0.0 1.63137 1.25326 3.25523 -3.13209 -22.6192 80.5279 0.21169 -5.9866 0.0110695 -5.49063 -0.225512 0.664388 3.52355 30.4608 32.4358 -0.0 0.0 -0.0 -1.81709 -13.1131 1.4533 6.38596 26.4141 -72.7508 2.23989 47.9668 -0.996587 -3.38213 0.131376 -0.411798 0.65815 -11.2432 -8.86214 0.0 0.0 0.0 4.68523 17.7378 -8.83492 -18.4748 0.310671 2.80583 37.632 15.5397 -4.72209 -15.442 0.0 0.0 -0.0 0.0 -0.0 -0.66386 11.7799 -7.66982 -5.38966 -0.184087 -0.806365 28.386 5.22138 3.78914 -21.9165 0.0 0.0 0.0 0.0 0.0 
2389.36000469 746.21 -1460.25639864 141.190940983 79.2888187398 -138.080535692 -2.51096 -0.435675 -1.75826 -2.50929 -0.322928 -1.7824 -2.49696 0.137714 -1.80617 -2.50148 -0.149218 -1.80526 1.37843 0.289536 2.23329 1.39594 -1.35432 2.46735 -0.0 0.0 -0.0 1.63137 1.25326 3.25523 -3.13209 -22.6192 80.5279 0.21169 -5.9866 0.0110695 -5.49063 -0.225512 0.664388 3.52355 30.4608 32.4358 -0.0 0.0 -0.0 -1.81709 -13.1131 1.4533 6.38596 26.4141 -72.7508 2.23989 47.9668 -0.996587 -3.38213 0.131376 -0.411798 0.65815 -11.2432 -8.86214 0.0 0.0 0.0 4.68523 17.7378 -8.83492 -18.4748 0.310671 2.80583 37.632 15.5397 -4.72209 -15.442 0.0 0.0 -0.0 0.0 -0.0 -0.66386 11.7799 -7.66982 -5.38966 -0.184087 -0.806365 28.386 5.22138 3.78914 -21.9165 0.0 0.0 0.0 0.0 0.0 
2389.56853954 746.21 -1454.94896171 143.512576373 78.7035561705 -140.445611947 -2.51096 -0.435675 -1.75826 -2.50929 -0.322928 -1.7824 -2.49696 0.137714 -1.80617 -2.50148 -0.149218 -1.80526 1.37843 0.289536 2.23329 1.39594 -1.35432 2.46735 -0.0 0.0 -0.0 1.63137 1.25326 3.25523 -3.13209 -22.6192 80.5279 0.21169 -5.9866 0.0110695 -5.49063 -0.225512 0.664388 3.52355 30.4608 32.4358 -0.0 0.0 -0.0 -1.81709 -13.1131 1.4533 6.38596 26.4141 -72.7508 2.23989 47.9668 -0.996587 -3.38213 0.131376 -0.411798 0.65815 -11.2432 -8.86214 0.0 0.0 0.0 4.68523 17.7378 -8.83492 -18.4748 0.310671 2.80583 37.632 15.5397 -4.72209 -15.442 0.0 0.0 -0.0 0.0 -0.0 -0.66386 11.7799 -7.66982 -5.38966 -0.184087 -0.806365 28.386 5.22138 3.78914 -21.9165 0.0 0.0 0.0 0.0 0.0 
2389.67326 746.21 -1452.7848022 144.390943495 78.4598105202 -141.341712051 -2.51096 -0.435675 -1.75826 -2.50929 -0.322928 -1.7824 -2.49696 0.137714 -1.80617 -2.50148 -0.149218 -1.80526 1.37843 0.289536 2.23329 1.39594 -1.35432 2.46735 -0.0 0.0 -0.0 1.63137 1.25326 3.25523 -3.13209 -22.6192 80.5279 0.21169 -5.9866 0.0110695 -5.49063 -0.225512 0.664388 3.52355 30.4608 32.4358 -0.0 0.0 -0.0 -1.81709 -13.1131 1.4533 6.38596 26.4141 -72.7508 2.23989 47.9668 -0.996587 -3.38213 0.131376 -0.411798 0.65815 -11.2432 -8.86214 0.0 0.0 0.0 4.68523 17.7378 -8.83492 -18.4748 0.310671 2.80583 37.632 15.5397 -4.72209 -15.442 0.0 0.0 -0.0 0.0 -0.0 -0.66386 11.7799 -7.66982 -5.38966 -0.184087 -0.806365 28.386 5.22138 3.78914 -21.9165 0.0 0.0 0.0 0.0 0.0 
2389.61081133 746.21 -1454.04670134 143.883345667 78.602274729 -140.82377284 -2.51096 -0.435675 -1.75826 -2.50929 -0.322928 -1.7824 -2.49696 0.137714 -1.80617 -2.50148 -0.149218 -1.80526 1.37843 0.289536 2.23329 1.39594 -1.35432 2.46735 -0.0 0.0 -0.0 1.63137 1.25326 3.25523 -3.13209 -22.6192 80.5279 0.21169 -5.9866 0.0110695 -5.49063 -0.225512 0.664388 3.52355 30.4608 32.4358 -0.0 0.0 -0.0 -1.81709 -13.1131 1.4533 6.38596 26.4141 -72.7508 2.23989 47.9668 -0.996587 -3.38213 0.131376 -0.411798 0.65815 -11.2432 -8.86214 0.0 0.0 0.0 4.68523 17.7378 -8.83492 -18.4748 0.310671 2.80583 37.632 15.5397 -4.72209 -15.442 0.0 0.0 -0.0 0.0 -0.0 -0.66386 11.7799 -7.66982 -5.38966 -0.184087 -0.806365 28.386 5.22138 3.78914 -21.9165 0.0 0.0 0.0 0.0 0.0 
2389.67505988 746.21 -1452.74955784 144.404940321 78.4558182242 -141.355997767 -2.51096 -0.435675 -1.75826 -2.50929 -0.322928 -1.7824 -2.49696 0.137714 -1.80617 -2.50148 -0.149218 -1.80526 1.37843 0.289536 2.23329 1.39594 -1.35432 2.46735 -0.0 0.0 -0.0 1.63137 1.25326 3.25523 -3.13209 -22.6192 80.5279 0.21169 -5.9866 0.0110695 -5.49063 -0.225512 0.664388 3.52355 30.4608 32.4358 -0.0 0.0 -0.0 -1.81709 -13.1131 1.4533 6.38596 26.4141 -72.7508 2.23989 47.9668 -0.996587 -3.38213 0.131376 -0.411798 0.65815 -11.2432 -8.86214 0.0 0.0 0.0 4.68523 17.7378 -8.83492 -18.4748 0.310671 2.80583 37.632 15.5397 -4.72209 -15.442 0.0 0.0 -0.0 0.0 -0.0 -0.66386 11.7799 -7.66982 -5.38966 -0.184087 -0.806365 28.386 5.22138 3.78914 -21.9165 0.0 0.0 0.0 0.0 0.0 
